<svg width="131" height="80" viewBox="0 0 131 80" fill="none" xmlns="http://www.w3.org/2000/svg">
<path d="M15.4228 74.4L15.2827 79.5148H0V78.9716L2.50527 78.7272V58.9924L0 58.7498V58.2067H7.84147V58.7498L5.18156 58.9961V78.8286H11.784C12.2334 78.8286 12.5646 78.7616 12.761 78.6313C13.0192 78.411 13.2112 78.124 13.316 77.802L14.5786 74.4H15.4228Z" fill="#285DA1"/>
<path d="M39.4094 63.2979C38.6203 61.6917 37.4175 60.3223 35.9235 59.3292C34.8691 58.6238 33.6703 58.1606 32.4139 57.9731V58.3732C33.9003 58.6955 35.0993 59.57 35.9999 61.0039C37.1594 62.847 37.7398 65.4633 37.741 68.8526C37.7422 72.2419 37.1619 74.8545 35.9999 76.6903C35.0993 78.1152 33.9003 78.9861 32.4139 79.3029V79.7338C33.6695 79.5452 34.8677 79.0835 35.9235 78.3814C37.4174 77.386 38.6201 76.0149 39.4094 74.4073C40.243 72.673 40.6756 70.775 40.6756 68.8526C40.6756 66.9301 40.243 65.0321 39.4094 63.2979ZM22.6712 63.2979C21.8353 65.0315 21.4014 66.9297 21.4014 68.8526C21.4014 70.7754 21.8353 72.6737 22.6712 74.4073C23.4589 76.0159 24.6619 77.3873 26.1571 78.3814C27.2694 79.1195 28.5387 79.5905 29.865 79.7574V79.3392C28.2882 79.0567 27.0292 78.172 26.088 76.6849C24.926 74.8515 24.3456 72.2389 24.3468 68.8471C24.3481 65.4554 24.9284 62.8392 26.088 60.9985C27.0268 59.5054 28.2858 58.6146 29.865 58.3262V57.9369C28.5402 58.1077 27.2733 58.5825 26.1644 59.3238C24.6703 60.3175 23.469 61.6892 22.6839 63.2979H22.6712Z" fill="#285DA1"/>
<path d="M30.0245 79.9385L29.8426 79.9149C28.4947 79.7403 27.2053 79.2589 26.0746 78.5082C24.5582 77.4967 23.3364 76.1053 22.5323 74.4743C21.6857 72.7184 21.2461 70.7957 21.2461 68.8481C21.2461 66.9005 21.6857 64.9778 22.5323 63.2219C23.3345 61.5906 24.5568 60.1999 26.0746 59.1916C27.2041 58.4376 28.4938 57.9542 29.8426 57.7794L30.0245 57.7577V58.4584L29.8935 58.4819C28.3689 58.7589 27.1335 59.6334 26.2238 61.0818C25.0831 62.8923 24.5063 65.4995 24.5063 68.8472C24.5063 72.1948 25.0831 74.8038 26.222 76.5999C27.1317 78.0483 28.367 78.9101 29.8935 79.1835L30.0245 79.207V79.9385ZM29.7061 58.1252C28.4689 58.3113 27.2883 58.7676 26.2493 59.4614C24.7777 60.4394 23.5931 61.7882 22.8162 63.3703C21.991 65.0816 21.5625 66.9554 21.5625 68.8535C21.5625 70.7516 21.991 72.6254 22.8162 74.3367C23.5944 75.919 24.7787 77.2686 26.2493 78.2492C27.2898 78.9396 28.4698 79.3945 29.7061 79.5818V79.4768C28.1469 79.1599 26.8861 78.2529 25.9527 76.7755C24.7811 74.9269 24.188 72.2618 24.188 68.8526C24.188 65.4434 24.7811 62.7747 25.9582 60.9279C26.8934 59.4433 28.1542 58.529 29.7116 58.2121L29.7061 58.1252ZM32.2532 79.9186V79.1744L32.3806 79.1473C33.8197 78.8413 34.9914 77.9849 35.8628 76.6125C37.0036 74.802 37.5803 72.2021 37.5803 68.8598C37.5803 65.5176 37.0036 62.905 35.8628 61.0945C34.9914 59.7076 33.8197 58.8476 32.3788 58.5362L32.2532 58.5091V57.7957L32.4352 57.8229C33.7142 58.0148 34.9346 58.4866 36.0084 59.2043C37.5249 60.2142 38.7468 61.6044 39.5507 63.2345C40.3952 64.9911 40.8336 66.9135 40.8336 68.8608C40.8336 70.808 40.3952 72.7305 39.5507 74.487C38.7457 76.1174 37.5241 77.5085 36.0084 78.5208C34.933 79.2347 33.7132 79.7051 32.4352 79.8986L32.2532 79.9186ZM32.5734 79.4297V79.5474C33.7391 79.3451 34.8495 78.9029 35.8337 78.2492C37.3031 77.2672 38.4871 75.9179 39.2669 74.3367C40.0897 72.6248 40.5167 70.7512 40.5167 68.8535C40.5167 66.9558 40.0897 65.0823 39.2669 63.3703C38.4884 61.7892 37.3041 60.4407 35.8337 59.4614C34.8503 58.8052 33.7397 58.3611 32.5734 58.1578V58.2483C34.0435 58.5996 35.2406 59.4976 36.1339 60.9189C37.3056 62.7819 37.8987 65.4452 37.8987 68.8526C37.8987 72.26 37.3056 74.9215 36.1339 76.7755C35.237 78.1895 34.0417 79.0821 32.5734 79.4297Z" fill="#285DA1"/>
<path d="M57.2523 58.3533V58.5977L59.1171 58.7498C59.3638 58.7471 59.6068 58.8096 59.8212 58.9309C59.892 58.9833 59.9485 59.0525 59.9857 59.1322C60.0229 59.2118 60.0395 59.2995 60.0341 59.3871C60.0345 59.5868 59.9924 59.7843 59.9104 59.9665L55.9551 68.17L56.2371 68.6136L60.4034 59.9611C60.629 59.4903 60.8364 59.1825 61.0329 59.0305C61.2294 58.8784 61.5678 58.7806 62.0554 58.7426L63.7674 58.5905V58.3461L57.2523 58.3533Z" fill="#285DA1"/>
<path d="M57.0939 58.1958V58.739L59.1116 58.9001C59.3279 58.8986 59.5411 58.9509 59.732 59.0522C59.7837 59.0893 59.8247 59.1393 59.8508 59.1971C59.877 59.2549 59.8875 59.3186 59.8812 59.3817C59.8811 59.5578 59.8432 59.7319 59.7702 59.8923L55.7676 68.1772L56.2479 68.9431L60.5416 60.0281C60.6738 59.7012 60.872 59.4048 61.1238 59.1572C61.2439 59.0648 61.5022 58.9454 62.0626 58.9001L63.9202 58.7335V58.1904L57.0939 58.1958ZM56.1387 68.17L60.0595 60.0335C60.152 59.8317 60.1998 59.6125 60.1996 59.3907C60.2039 59.2775 60.1807 59.1648 60.1319 59.0624C60.0831 58.9599 60.0102 58.8707 59.9194 58.8023C59.6806 58.6648 59.4092 58.5936 59.1334 58.5959L58.1437 58.5144H62.9523L62.0426 58.5959C61.5204 58.6339 61.1602 58.739 60.9346 58.9128C60.709 59.0866 60.4961 59.407 60.2596 59.9013L56.2188 68.2931L56.1387 68.17Z" fill="#285DA1"/>
<path d="M55.2471 71.0506V78.7236L57.9015 78.9698V79.5093H49.9108V78.9698L52.5653 78.7236V71.2026L45.9901 58.987L43.4248 58.7408V58.1958H51.3554V58.7408L48.7938 58.9743L54.8177 70.1761L55.2471 71.0506Z" fill="#285DA1"/>
<path d="M69.886 58.8404L67.3789 58.5977V58.3533H74.9002V58.5977L72.2403 58.8404V78.9897H78.9992C79.4844 78.9897 79.8409 78.9137 80.069 78.7616C80.2927 78.6095 80.4983 78.309 80.6821 77.8563L82.7616 72.6511L83.1255 72.7126L82.3596 79.3536H67.3789V79.111L69.886 78.8684V58.8404Z" fill="#285DA1"/>
<path d="M82.5063 79.5129H67.2236V78.9698L69.7325 78.7272V58.9924L67.2236 58.748V58.2048H75.0669V58.748L72.4052 58.9906V78.8304H79.0059C79.4589 78.8304 79.79 78.7634 79.9865 78.6294C80.244 78.41 80.4359 78.1244 80.5414 77.8038L82.6664 72.4808L83.3105 72.5877L82.5063 79.5129ZM68.1442 79.1961H82.2225L82.9502 72.8593L82.8593 72.8448L80.8307 77.9215C80.6324 78.4031 80.414 78.7199 80.1611 78.8919C79.9083 79.0639 79.5262 79.1472 79.0004 79.1472H72.0868V58.6882L74.0881 58.5072H68.1388L70.0418 58.6882V79.0024L68.1442 79.1961Z" fill="#285DA1"/>
<path d="M103.68 72.9317L101.663 77.8618C101.48 78.3096 101.276 78.6113 101.051 78.767C100.827 78.9227 100.47 78.9988 99.9798 78.9951H93.1281V68.5484H97.6565C98.1417 68.5484 98.4885 68.6305 98.6972 68.7946C98.9009 68.954 99.041 69.2708 99.1265 69.7361L99.6432 72.2002H100.007V64.415H99.6432L99.1247 66.8809C99.0392 67.3498 98.8991 67.6631 98.6953 67.8224C98.4916 67.9817 98.1495 68.0686 97.6547 68.0686H93.1281V60.8718H90.7756V78.8666L88.2686 79.1128V79.3536H103.255L104.021 72.9625L103.68 72.9317Z" fill="#285DA1"/>
<path d="M88.1084 58.7407V58.1976H103.433L103.884 64.2176L103.302 64.2774L101.548 59.9067C101.366 59.4704 101.195 59.1825 101.002 59.0648C100.809 58.9471 100.493 58.8838 100.038 58.8838H93.29L88.1084 58.7407Z" fill="#285DA1"/>
<path d="M103.578 72.7633L101.514 77.802C101.41 78.1223 101.221 78.4088 100.968 78.6312C100.771 78.7616 100.44 78.8286 99.9852 78.8286H93.29V68.7132H97.6565C98.1077 68.7132 98.4206 68.7802 98.5952 68.9196C98.7699 69.059 98.8936 69.3432 98.97 69.7741L99.5158 72.365H100.174V64.2538H99.5158L98.97 66.8501C98.8936 67.272 98.7699 67.5599 98.5952 67.6956C98.4206 67.8314 98.1077 67.9021 97.6565 67.9021H93.29V60.8718H92.9716V68.2189H97.6565C98.1877 68.2189 98.5661 68.1302 98.7954 67.9437C99.0246 67.7572 99.1938 67.415 99.2793 66.9081L99.7724 64.5707H99.8524V72.0445H99.7724L99.2793 69.7108C99.1902 69.2002 99.0301 68.8616 98.7917 68.6715C98.5534 68.4814 98.1841 68.3927 97.6528 68.3927H92.9716V79.1472H99.9798C100.507 79.1472 100.889 79.0658 101.141 78.8919C101.392 78.7181 101.612 78.4031 101.812 77.9251L103.786 73.1019H103.842L103.115 79.1943H89.0345L90.9321 79.0133V60.8718H90.6137V78.7236L88.1084 78.968V79.5112H103.391L104.19 72.8122L103.578 72.7633Z" fill="#285DA1"/>
<path d="M130.841 58.3533V58.5978L128.638 58.8404C128.153 58.9019 127.827 59.0226 127.659 59.2025C127.496 59.3835 127.416 59.7203 127.416 60.2055V79.8407H127.115L113.377 60.4535H113.254V77.4979C113.254 77.9807 113.314 78.3204 113.436 78.5172C113.559 78.7109 113.799 78.8268 114.163 78.8684L116.334 79.111V79.3537H109.649V79.111L111.851 78.8684C112.215 78.8268 112.462 78.7109 112.579 78.5172C112.695 78.3235 112.761 77.9849 112.761 77.4979V59.7836L112.637 59.6026C112.433 59.2757 112.156 59 111.827 58.7969C111.475 58.6462 111.093 58.5787 110.71 58.5996H110.195V58.3551H114.744L126.795 75.1568H126.933V60.2037C126.933 59.7185 126.872 59.3727 126.751 59.1699C126.631 58.9671 126.388 58.8548 126.024 58.8349L123.546 58.5923V58.3479L130.841 58.3533Z" fill="#285DA1"/>
<path d="M127.574 80H127.029L113.414 60.7813V77.4979C113.414 78.0628 113.502 78.318 113.574 78.4321C113.669 78.5824 113.876 78.6747 114.189 78.7109L116.504 78.9698V79.513H109.486V78.9698L111.833 78.7109C112.148 78.6747 112.355 78.5824 112.45 78.4321C112.521 78.318 112.608 78.07 112.608 77.4979V59.8416L112.514 59.6986C112.324 59.3936 112.066 59.136 111.761 58.9454C111.431 58.8067 111.075 58.7448 110.718 58.7643H110.039V58.2049H114.835L126.767 74.8382V60.2037C126.767 59.637 126.679 59.3727 126.607 59.2514C126.514 59.0975 126.31 59.0106 126.001 58.9943L123.372 58.7354V58.1922H131V58.7354L128.657 58.9943C128.102 59.0631 127.873 59.2025 127.78 59.3075C127.687 59.4125 127.574 59.6515 127.574 60.2127V80ZM127.192 79.6832H127.256V60.2037C127.256 59.6732 127.349 59.3093 127.542 59.0957C127.735 58.882 128.088 58.7444 128.621 58.6774L130.169 58.5072H124.287L126.024 58.6774C126.439 58.701 126.728 58.8386 126.879 59.0884C127.031 59.3383 127.085 59.6841 127.085 60.2037V75.3071H126.721L114.672 58.5127H111.5C111.641 58.5423 111.777 58.5897 111.906 58.6539C112.259 58.868 112.556 59.1613 112.774 59.5103L112.925 59.7366V77.4979C112.925 78.0193 112.858 78.3814 112.718 78.6023C112.577 78.8232 112.281 78.9789 111.866 79.026L110.321 79.1961H115.679L114.155 79.026C113.74 78.9789 113.453 78.8449 113.303 78.6023C113.154 78.3597 113.096 78.0193 113.096 77.4979V60.2978H113.46L127.192 79.6832Z" fill="#285DA1"/>
<path d="M80.1763 15.7697V7.50102L65.8161 0.162946L65.4995 0L65.1829 0.162946L50.9282 7.44489L50.8208 7.50102V15.451L44.4385 22.2496L50.8208 29.3287V37.9161L65.1811 45.256L65.414 45.3754L65.5049 45.4225L65.8215 45.2415L80.1745 37.4562V29.6474L86.5569 22.7076L80.1763 15.7697ZM50.8208 25.4524L48.0517 22.3745L50.8208 19.4252V25.4524ZM50.8208 18.7897L47.5714 22.2496L47.4532 22.3781L50.8208 26.1132V27.9763L45.672 22.2641L50.8208 16.7818V18.7897ZM51.7796 7.98624L63.4236 2.03865L51.7796 14.4317V7.98624ZM51.7796 37.4327V30.3915L63.5491 43.4454L51.7796 37.4327ZM79.2157 36.9873L67.6409 43.2734L79.2157 30.6921V36.9873ZM79.2157 29.345L65.5013 44.2565L51.7796 29.0336V27.176L65.4959 42.3845L79.2157 27.4711V29.345ZM79.2157 26.8248L65.4995 41.7363L51.7796 26.5188V18.4131L65.4959 3.80754L79.2157 18.7209V26.8248ZM79.2157 18.0691L65.6796 3.3531L65.4977 3.15756L51.7778 17.7667V15.757L65.4922 1.15331L79.2139 16.0702L79.2157 18.0691ZM79.2157 14.7286L67.5099 2.00606L79.2157 7.98081V14.7286ZM80.1763 19.7637L82.9454 22.7728L80.1763 25.7819V19.7637ZM80.1763 26.4355L83.4257 22.9068L83.5422 22.7783L80.1763 19.1047V17.1131L85.3252 22.7113L80.1763 28.3058V26.4355Z" fill="#285DA1"/>
<path d="M70.4036 25.771L69.5194 28.0867C69.4353 28.3348 69.2819 28.5539 69.0773 28.7186C68.842 28.8439 68.5757 28.8999 68.3095 28.8797H63.4646V14.6634L65.3731 14.4824V14.3104H59.9805V14.4824L61.7798 14.6634V28.7855L60.0005 29.1132V29.4247H70.7147L71.0204 25.7692L70.4036 25.771ZM62.4312 28.8181H62.0509V14.8065H62.4312V28.8181Z" fill="#285DA1"/>
</svg>
